<?xml version="1.0" encoding="utf-8"?>
<!-- Generator: Adobe Illustrator 16.0.0, SVG Export Plug-In . SVG Version: 6.00 Build 0)  -->
<!DOCTYPE svg PUBLIC "-//W3C//DTD SVG 1.1//EN" "http://www.w3.org/Graphics/SVG/1.1/DTD/svg11.dtd">
<svg version="1.1" xmlns="http://www.w3.org/2000/svg" xmlns:xlink="http://www.w3.org/1999/xlink" x="0px" y="0px" width="600px"
	 height="205.984px" viewBox="0 0 600 205.984" enable-background="new 0 0 600 205.984" xml:space="preserve">
<g id="Layer_1">
	<linearGradient id="SVGID_1_" gradientUnits="userSpaceOnUse" x1="300.0225" y1="0" x2="300.0225" y2="205.9849">
		<stop  offset="0" style="stop-color:#2F2F2F"/>
		<stop  offset="1" style="stop-color:#171717"/>
	</linearGradient>
	<path fill="url(#SVGID_1_)" d="M600,177.986c0,15.463-12.535,27.998-27.998,27.998H28.043c-15.463,0-27.998-12.535-27.998-27.998
		V27.998C0.045,12.535,12.581,0,28.043,0h543.958C587.465,0,600,12.535,600,27.998V177.986z"/>
</g>
<g id="SemiBold">
</g>
<g id="Isolation_Mode">
	<path fill="#FFFFFF" d="M121.137,112.851c-0.134-15.001,12.283-22.299,12.852-22.64c-7.034-10.254-17.933-11.654-21.765-11.765
		c-9.154-0.963-18.036,5.477-22.699,5.477c-4.757,0-11.938-5.384-19.679-5.227c-9.961,0.154-19.278,5.92-24.387,14.876
		c-10.547,18.258-2.682,45.091,7.422,59.849c5.054,7.231,10.96,15.299,18.692,15.013c7.563-0.305,10.388-4.818,19.515-4.818
		c9.045,0,11.697,4.818,19.581,4.636c8.118-0.123,13.229-7.259,18.106-14.554c5.84-8.276,8.186-16.444,8.279-16.862
		C136.868,136.772,121.296,130.827,121.137,112.851z"/>
	<path fill="#FFFFFF" d="M106.244,68.737c4.066-5.088,6.85-12.009,6.077-19.033c-5.886,0.261-13.25,4.073-17.49,9.05
		c-3.752,4.384-7.102,11.569-6.236,18.328C95.208,77.575,101.999,73.744,106.244,68.737z"/>
	<g>
		<path fill="#FFFFFF" d="M230.685,149.398h-10.57l-5.791-18.195h-20.124l-5.516,18.195h-10.29l19.942-61.94h12.315L230.685,149.398
			z M212.58,123.572l-5.236-16.172c-0.555-1.654-1.595-5.545-3.123-11.669h-0.187c-0.613,2.634-1.595,6.524-2.94,11.669
			l-5.147,16.172H212.58z"/>
		<path fill="#FFFFFF" d="M281.873,126.517c0,7.595-2.061,13.599-6.19,18.008c-3.695,3.922-8.291,5.881-13.768,5.881
			c-5.916,0-10.169-2.109-12.753-6.336v23.435h-9.922v-48.088c0-4.772-0.125-9.663-0.368-14.681h8.727l0.554,7.082h0.187
			c3.309-5.336,8.331-8.004,15.069-8.004c5.271,0,9.668,2.082,13.186,6.245C280.11,114.236,281.873,119.718,281.873,126.517z
			 M271.765,126.881c0-4.345-0.979-7.932-2.943-10.754c-2.146-2.937-5.027-4.409-8.638-4.409c-2.448,0-4.672,0.818-6.661,2.437
			c-1.991,1.627-3.295,3.754-3.904,6.391c-0.307,1.227-0.461,2.227-0.461,3.018v7.454c0,3.241,0.998,5.981,2.989,8.227
			c1.993,2.232,4.579,3.354,7.763,3.354c3.738,0,6.647-1.445,8.727-4.318C270.722,135.398,271.765,131.599,271.765,126.881z"/>
		<path fill="#FFFFFF" d="M333.241,126.517c0,7.595-2.063,13.599-6.19,18.008c-3.7,3.922-8.291,5.881-13.772,5.881
			c-5.909,0-10.163-2.109-12.754-6.336v23.435h-9.92v-48.088c0-4.772-0.125-9.663-0.368-14.681h8.725l0.555,7.082h0.191
			c3.299-5.336,8.327-8.004,15.072-8.004c5.264,0,9.663,2.082,13.19,6.245C331.478,114.236,333.241,119.718,333.241,126.517z
			 M323.133,126.881c0-4.345-0.982-7.932-2.945-10.754c-2.146-2.937-5.019-4.409-8.637-4.409c-2.445,0-4.672,0.818-6.663,2.437
			c-1.99,1.627-3.29,3.754-3.899,6.391c-0.309,1.227-0.473,2.227-0.473,3.018v7.454c0,3.241,1,5.981,2.99,8.227
			c1.991,2.227,4.573,3.354,7.772,3.354c3.736,0,6.646-1.445,8.727-4.318C322.087,135.398,323.133,131.599,323.133,126.881z"/>
		<path fill="#FFFFFF" d="M390.674,132.026c0,5.272-1.836,9.559-5.499,12.868c-4.036,3.613-9.663,5.422-16.872,5.422
			c-6.673,0-12.009-1.286-16.045-3.859l2.3-8.272c4.346,2.577,9.127,3.864,14.336,3.864c3.736,0,6.646-0.846,8.727-2.527
			c2.082-1.686,3.127-3.936,3.127-6.75c0-2.518-0.863-4.627-2.572-6.345c-1.718-1.709-4.563-3.309-8.545-4.772
			c-10.845-4.045-16.271-9.963-16.271-17.745c0-5.082,1.918-9.24,5.735-12.495c3.827-3.248,8.899-4.873,15.218-4.873
			c5.636,0,10.327,0.982,14.054,2.941l-2.491,8.09c-3.509-1.9-7.463-2.85-11.899-2.85c-3.499,0-6.244,0.861-8.208,2.575
			c-1.654,1.529-2.491,3.397-2.491,5.611c0,2.445,0.955,4.473,2.854,6.063c1.646,1.468,4.654,3.063,9,4.777
			c5.336,2.15,9.254,4.654,11.763,7.532C389.42,124.158,390.674,127.744,390.674,132.026z"/>
		<path fill="#FFFFFF" d="M423.572,112.182h-10.944v21.685c0,5.513,1.927,8.268,5.79,8.268c1.772,0,3.245-0.15,4.409-0.464
			l0.272,7.536c-1.954,0.731-4.527,1.1-7.709,1.1c-3.927,0-6.981-1.2-9.199-3.591c-2.2-2.391-3.309-6.399-3.309-12.04v-22.512
			h-6.509v-7.445h6.509v-8.179l9.745-2.94v11.12h10.944V112.182z"/>
		<path fill="#FFFFFF" d="M472.824,126.699c0,6.863-1.964,12.499-5.891,16.908c-4.1,4.536-9.554,6.8-16.354,6.8
			c-6.563,0-11.781-2.172-15.672-6.518c-3.891-4.35-5.836-9.832-5.836-16.445c0-6.922,2.018-12.59,6.018-16.999
			c4.018-4.409,9.427-6.618,16.227-6.618c6.554,0,11.817,2.182,15.799,6.527C470.925,114.572,472.824,120.018,472.824,126.699z
			 M462.534,126.926c0-4.091-0.882-7.6-2.654-10.536c-2.082-3.545-5.063-5.318-8.918-5.318c-3.973,0-7.027,1.772-9.1,5.318
			c-1.782,2.936-2.663,6.509-2.663,10.722c0,4.095,0.881,7.613,2.663,10.54c2.146,3.55,5.136,5.323,9.018,5.323
			c3.791,0,6.764-1.814,8.918-5.409C461.616,134.562,462.534,131.026,462.534,126.926z"/>
		<path fill="#FFFFFF" d="M505.086,113.463c-0.981-0.182-2.027-0.273-3.127-0.273c-3.49,0-6.19,1.309-8.091,3.955
			c-1.645,2.327-2.472,5.268-2.472,8.818v23.435h-9.928v-30.599c0-5.141-0.091-9.836-0.281-14.058h8.636l0.363,8.545h0.282
			c1.045-2.937,2.7-5.304,4.954-7.077c2.218-1.6,4.6-2.395,7.173-2.395c0.918,0,1.745,0.068,2.481,0.182L505.086,113.463
			L505.086,113.463z"/>
		<path fill="#FFFFFF" d="M549.466,124.954c0,1.777-0.118,3.277-0.364,4.5H519.34c0.109,4.414,1.555,7.791,4.318,10.118
			c2.509,2.078,5.754,3.118,9.735,3.118c4.409,0,8.427-0.695,12.045-2.109l1.555,6.886c-4.228,1.841-9.218,2.759-14.972,2.759
			c-6.928,0-12.363-2.037-16.317-6.104c-3.945-4.072-5.928-9.549-5.928-16.403c0-6.727,1.837-12.336,5.519-16.808
			c3.854-4.777,9.062-7.164,15.617-7.164c6.436,0,11.309,2.386,14.617,7.164C548.147,114.69,549.466,119.381,549.466,124.954z
			 M540.002,122.381c0.073-2.945-0.581-5.481-1.927-7.627c-1.718-2.768-4.354-4.145-7.899-4.145c-3.245,0-5.891,1.345-7.899,4.045
			c-1.654,2.145-2.637,4.727-2.937,7.718L540.002,122.381L540.002,122.381z"/>
	</g>
	<g>
		<path fill="#FFFFFF" d="M195.257,37.363c-1.632-1.326-2.855-1.836-4.793-1.836c-3.774,0-6.494,2.788-6.494,7.717
			c0,4.726,2.482,7.683,6.868,7.683c1.972,0,4.08-0.408,6.017-1.292c0.442-0.204,0.442-0.374,0.442-0.816v-2.856h-4.012v-3.229
			h7.343c0.34,0,0.578,0,0.578,0.442v11.321h-3.025l-0.578-2.108l-1.802,0.986c-1.836,1.02-3.468,1.462-5.439,1.462
			c-6.323,0-10.641-4.861-10.641-11.627c0-7.173,5.202-11.593,11.015-11.593c4.386,0,7.819,2.04,9.621,5.916l-2.652,1.802
			L195.257,37.363z"/>
		<path fill="#FFFFFF" d="M221.539,31.958v3.467h-11.627v5.78h10.403v3.434h-10.403v6.391h12.001v3.468h-16.081v-22.54H221.539z"/>
		<path fill="#FFFFFF" d="M236.125,54.497h-4.08V35.425h-7.513v-3.467h19.106v3.467h-7.514V54.497z"/>
		<path fill="#FFFFFF" d="M254.723,31.958h4.08v22.54h-4.08V31.958z"/>
		<path fill="#FFFFFF" d="M273.558,54.497h-4.08V35.425h-7.513v-3.467h19.106v3.467h-7.513V54.497z"/>
		<path fill="#FFFFFF" d="M302.117,54.837c-5.813,0-11.185-4.487-11.185-11.627c0-7.139,5.372-11.593,11.185-11.593h0.102
			c5.814,0,11.186,4.454,11.186,11.593c0,7.14-5.371,11.627-11.186,11.627H302.117z M302.117,50.894h0.102
			c4.284,0,6.936-2.924,6.936-7.684c0-4.725-2.651-7.649-6.936-7.649h-0.102c-4.284,0-6.935,2.89-6.935,7.649
			C295.182,47.902,297.833,50.894,302.117,50.894z"/>
		<path fill="#FFFFFF" d="M333.396,31.958h3.842v22.54h-2.924c-0.375,0-0.51-0.068-0.783-0.374l-8.736-10.913
			c-1.496-1.903-3.094-3.978-3.74-4.963h-0.033v16.25h-3.842v-22.54h2.924c0.373,0,0.51,0.034,0.781,0.374l8.738,10.913
			c1.461,1.802,3.094,3.978,3.738,4.963h0.035V31.958z"/>
		<path fill="#FFFFFF" d="M359.814,54.497h-4.08V35.425h-7.512v-3.467h19.105v3.467h-7.514V54.497z"/>
		<path fill="#FFFFFF" d="M385.789,44.672h-11.32v9.825h-4.08v-22.54h4.08v9.111h11.32v-9.111h4.08v22.54h-4.08V44.672z"/>
		<path fill="#FFFFFF" d="M410.473,31.958v3.467h-11.627v5.78h10.404v3.434h-10.404v6.391h12.002v3.468h-16.08v-22.54H410.473z"/>
	</g>
</g>
</svg>
