<?xml version="1.0" encoding="utf-8"?>
<!-- Generator: Adobe Illustrator 16.0.4, SVG Export Plug-In . SVG Version: 6.00 Build 0)  -->
<!DOCTYPE svg PUBLIC "-//W3C//DTD SVG 1.1//EN" "http://www.w3.org/Graphics/SVG/1.1/DTD/svg11.dtd">
<svg version="1.1" id="Layer_1" xmlns="http://www.w3.org/2000/svg" xmlns:xlink="http://www.w3.org/1999/xlink" x="0px" y="0px"
	 width="600px" height="205.984px" viewBox="0 0 600 205.984" enable-background="new 0 0 600 205.984" xml:space="preserve">
<g id="Layer_1_1_">
	
		<linearGradient id="SVGID_1_" gradientUnits="userSpaceOnUse" x1="231.0225" y1="-57.0159" x2="231.0224" y2="-263.0007" gradientTransform="matrix(1 0 0 -1 69 -57.0161)">
		<stop  offset="0" style="stop-color:#2F2F2F"/>
		<stop  offset="1" style="stop-color:#171717"/>
	</linearGradient>
	<path fill="url(#SVGID_1_)" d="M600,177.986c0,15.463-12.535,27.998-27.998,27.998H28.043c-15.463,0-27.998-12.535-27.998-27.998
		V27.998C0.045,12.535,12.581,0,28.043,0h543.958C587.465,0,600,12.535,600,27.998V177.986z"/>
</g>
<g id="SemiBold">
	<g>
		<g>
			<g>
				<path fill="#FFFFFF" d="M433.108,137.563v20.792h-4.13v-52.902h4.13v6.023c2.688-3.894,7.604-6.979,13.312-6.979
					c10.239,0,17.138,7.767,17.138,20.062c0,12.21-6.897,20.141-17.138,20.141C441.031,144.699,436.205,141.922,433.108,137.563z
					 M459.119,124.558c0-9.27-4.829-16.336-13.395-16.336c-5.318,0-10.405,4.182-12.616,7.826v16.935
					c2.211,3.651,7.298,7.983,12.616,7.983C454.29,140.967,459.119,133.837,459.119,124.558z"/>
				<path fill="#FFFFFF" d="M469.198,143.748V90.844h4.125v52.904H469.198z"/>
				<path fill="#FFFFFF" d="M519.653,154.935c0.883,0.392,2.39,0.635,3.345,0.635c2.528,0,4.284-1.031,5.863-4.683l3.013-6.82
					l-16.265-38.614h4.605l13.95,33.46l13.818-33.46h4.668l-19.839,46.715c-2.056,4.816-5.294,7.131-9.745,7.131
					c-1.332,0-3.095-0.238-4.124-0.556L519.653,154.935z"/>
				<path fill="#FFFFFF" d="M507.592,143.631c-0.272-1.326-0.48-2.496-0.634-3.475c-0.127-0.976-0.197-1.973-0.197-2.986
					c-1.419,2.079-3.426,3.809-5.983,5.171c-2.562,1.371-5,2.043-8.342,2.043c-4.023,0-7.143-0.989-9.371-2.996
					c-2.222-2.008-3.341-4.722-3.341-8.16c0-3.433,1.619-6.22,4.849-8.351c3.226-2.141,7.396-3.203,12.557-3.203h9.633v-4.76
					c0-2.74-0.937-4.893-2.802-6.458c-1.871-1.562-4.497-2.354-7.904-2.354c-3.112,0-5.64,0.723-7.562,2.131
					c-1.904,1.436-2.863,3.217-2.863,5.362h-4.228l-0.086-0.204c-0.156-2.894,1.172-5.432,3.982-7.623
					c2.802-2.189,6.474-3.291,10.987-3.291c4.498,0,8.141,1.086,10.889,3.247c2.741,2.14,4.122,5.234,4.122,9.278v18.893
					c0,1.354,0.062,2.666,0.23,3.944c0.175,1.281,0.452,2.558,0.821,3.791H507.592z M492.941,140.624
					c3.506,0,6.028-0.784,8.604-2.334c2.562-1.542,4.299-3.552,5.216-5.985v-7.354h-9.677c-3.698,0-6.754,0.818-9.164,2.468
					c-2.408,1.646-3.634,3.638-3.634,5.952c0,2.183,0.774,3.931,2.315,5.252C488.143,139.961,490.254,140.624,492.941,140.624z"/>
			</g>
		</g>
	</g>
	<g>
		<polygon fill="none" points="104.929,116.757 123.964,97.718 123.959,97.718 104.929,116.757 44.171,56.005 44.167,56.005 
			104.929,116.767 44.072,177.623 44.072,177.623 104.929,116.767 124.049,135.886 124.06,135.886 		"/>
		
			<linearGradient id="SVGID_2_" gradientUnits="userSpaceOnUse" x1="542" y1="303.1414" x2="461.7784" y2="353.3474" gradientTransform="matrix(0.7071 0.7071 0.7071 -0.7071 -505.4774 -57.0286)">
			<stop  offset="0" style="stop-color:#D6FFA1"/>
			<stop  offset="0.3264" style="stop-color:#93E2A7"/>
			<stop  offset="1" style="stop-color:#00A3B5"/>
		</linearGradient>
		<path fill="url(#SVGID_2_)" d="M123.959,97.718L49.785,56.935c-2.102-1.15-4.043-1.419-5.614-0.931l60.758,60.751L123.959,97.718z
			"/>
		
			<linearGradient id="SVGID_3_" gradientUnits="userSpaceOnUse" x1="495.3545" y1="346.032" x2="599.3692" y2="318.8412" gradientTransform="matrix(0.7071 0.7071 0.7071 -0.7071 -505.4774 -57.0286)">
			<stop  offset="0" style="stop-color:#FF177B"/>
			<stop  offset="0.6721" style="stop-color:#FFA976"/>
			<stop  offset="1" style="stop-color:#FFEC73"/>
		</linearGradient>
		<path fill="url(#SVGID_3_)" d="M124.06,135.886l25.319-13.923c5.135-2.834,5.135-7.445,0-10.27l-25.414-13.978l-19.035,19.039
			L124.06,135.886z"/>
		
			<linearGradient id="SVGID_4_" gradientUnits="userSpaceOnUse" x1="553.4229" y1="265.0603" x2="440.6365" y2="331.417" gradientTransform="matrix(0.7071 0.7071 0.7071 -0.7071 -505.4774 -57.0286)">
			<stop  offset="0" style="stop-color:#63FFD4"/>
			<stop  offset="0.4854" style="stop-color:#32A0BA"/>
			<stop  offset="0.8349" style="stop-color:#1262A9"/>
			<stop  offset="1" style="stop-color:#064AA2"/>
		</linearGradient>
		<path fill="url(#SVGID_4_)" d="M44.167,56.005c-2.256,0.705-3.717,2.99-3.717,6.447l0.015,108.756
			c0,3.414,1.416,5.665,3.607,6.415l60.857-60.855L44.167,56.005z"/>
		
			<linearGradient id="SVGID_5_" gradientUnits="userSpaceOnUse" x1="594.3701" y1="317.7439" x2="524.9238" y2="226.2518" gradientTransform="matrix(0.7071 0.7071 0.7071 -0.7071 -505.4774 -57.0286)">
			<stop  offset="0" style="stop-color:#FF4521"/>
			<stop  offset="0.3411" style="stop-color:#D43E65"/>
			<stop  offset="0.7935" style="stop-color:#9F36B9"/>
			<stop  offset="1" style="stop-color:#8A33DB"/>
		</linearGradient>
		<path fill="url(#SVGID_5_)" d="M44.072,177.623c1.579,0.537,3.56,0.285,5.712-0.896l74.265-40.84l-19.12-19.12L44.072,177.623z"/>
	</g>
	<g>
		<path fill="#FFFFFF" d="M195.257,37.363c-1.632-1.326-2.855-1.836-4.793-1.836c-3.774,0-6.494,2.788-6.494,7.717
			c0,4.727,2.482,7.683,6.868,7.683c1.972,0,4.08-0.407,6.017-1.292c0.442-0.203,0.442-0.374,0.442-0.815v-2.856h-4.012v-3.229
			h7.343c0.34,0,0.578,0,0.578,0.441v11.321h-3.025l-0.578-2.107l-1.802,0.985c-1.836,1.021-3.468,1.462-5.439,1.462
			c-6.323,0-10.641-4.86-10.641-11.627c0-7.173,5.202-11.593,11.015-11.593c4.386,0,7.819,2.04,9.621,5.916l-2.652,1.802
			L195.257,37.363z"/>
		<path fill="#FFFFFF" d="M221.539,31.958v3.467h-11.627v5.78h10.403v3.435h-10.403v6.391h12.001v3.468h-16.081v-22.54H221.539z"/>
		<path fill="#FFFFFF" d="M236.125,54.497h-4.08V35.425h-7.513v-3.467h19.106v3.467h-7.514L236.125,54.497L236.125,54.497z"/>
		<path fill="#FFFFFF" d="M254.723,31.958h4.08v22.54h-4.08V31.958z"/>
		<path fill="#FFFFFF" d="M273.558,54.497h-4.08V35.425h-7.513v-3.467h19.106v3.467h-7.513V54.497z"/>
		<path fill="#FFFFFF" d="M302.117,54.837c-5.813,0-11.185-4.486-11.185-11.627c0-7.139,5.372-11.593,11.185-11.593h0.102
			c5.814,0,11.186,4.454,11.186,11.593c0,7.141-5.37,11.627-11.186,11.627H302.117z M302.117,50.894h0.102
			c4.284,0,6.936-2.924,6.936-7.685c0-4.725-2.65-7.648-6.936-7.648h-0.102c-4.284,0-6.935,2.89-6.935,7.648
			C295.182,47.902,297.833,50.894,302.117,50.894z"/>
		<path fill="#FFFFFF" d="M333.396,31.958h3.842v22.54h-2.924c-0.375,0-0.51-0.067-0.783-0.374l-8.736-10.913
			c-1.496-1.902-3.094-3.978-3.74-4.963h-0.033v16.25h-3.842v-22.54h2.924c0.373,0,0.511,0.034,0.781,0.374l8.738,10.913
			c1.461,1.802,3.094,3.979,3.738,4.963h0.035V31.958L333.396,31.958z"/>
	</g>
</g>
<path id="path2998" fill="#FFFFFF" d="M232.565,113.168h-27.186v8.067h19.28c-0.952,11.312-10.364,16.137-19.248,16.137
	c-11.366,0-21.284-8.943-21.284-21.479c0-12.21,9.455-21.613,21.31-21.613c9.146,0,14.535,5.831,14.535,5.831l5.648-5.85
	c0,0-7.25-8.071-20.473-8.071c-16.837,0-29.863,14.21-29.863,29.56c0,15.041,12.253,29.707,30.292,29.707
	c15.866,0,27.479-10.869,27.479-26.94c0-3.392-0.492-5.351-0.492-5.351L232.565,113.168z"/>
<path id="path3000" fill="#FFFFFF" d="M254.835,107.326c-11.155,0-19.149,8.72-19.149,18.892c0,10.321,7.754,19.204,19.28,19.204
	c10.435,0,18.983-7.975,18.983-18.981C273.949,113.823,264.005,107.326,254.835,107.326L254.835,107.326z M254.946,114.807
	c5.486,0,10.684,4.436,10.684,11.581c0,6.995-5.176,11.557-10.709,11.557c-6.079,0-10.875-4.869-10.875-11.612
	C244.045,119.735,248.782,114.807,254.946,114.807L254.946,114.807z"/>
<path id="path3005" fill="#FFFFFF" d="M296.482,107.326c-11.155,0-19.149,8.72-19.149,18.892c0,10.321,7.755,19.204,19.281,19.204
	c10.435,0,18.983-7.975,18.983-18.981C315.597,113.823,305.653,107.326,296.482,107.326L296.482,107.326z M296.593,114.807
	c5.486,0,10.684,4.436,10.684,11.581c0,6.995-5.176,11.557-10.709,11.557c-6.08,0-10.876-4.869-10.876-11.612
	C285.692,119.735,290.429,114.807,296.593,114.807L296.593,114.807z"/>
<path id="path3007" fill="#FFFFFF" d="M337.332,107.344c-10.239,0-18.287,8.969-18.287,19.034c0,11.465,9.33,19.068,18.111,19.068
	c5.428,0,8.316-2.155,10.446-4.628v3.756c0,6.571-3.989,10.507-10.013,10.507c-5.819,0-8.737-4.325-9.752-6.781l-7.32,3.061
	c2.596,5.491,7.824,11.219,17.133,11.219c10.18,0,17.938-6.412,17.938-19.86v-34.229h-7.986v3.227
	C345.146,109.071,341.79,107.345,337.332,107.344L337.332,107.344z M338.073,114.812c5.021,0,10.175,4.286,10.175,11.606
	c0,7.44-5.144,11.541-10.286,11.541c-5.459,0-10.537-4.432-10.537-11.471C327.425,119.176,332.699,114.812,338.073,114.812
	L338.073,114.812z"/>
<path id="path3011" fill="#FFFFFF" d="M391.101,107.3c-9.659,0-17.769,7.684-17.769,19.023c0,11.999,9.039,19.113,18.695,19.113
	c8.06,0,13.006-4.408,15.958-8.358l-6.585-4.383c-1.709,2.652-4.564,5.245-9.332,5.245c-5.355,0-7.818-2.933-9.343-5.774
	l25.541-10.598l-1.325-3.105C404.474,112.38,398.718,107.301,391.101,107.3L391.101,107.3z M391.433,114.626
	c3.479,0,5.984,1.851,7.049,4.068l-17.057,7.13C380.688,120.304,385.917,114.626,391.433,114.626L391.433,114.626z"/>
<path id="path3015" fill="#FFFFFF" d="M361.155,144.305h8.391V88.16h-8.391V144.305z"/>
</svg>
